<?xml version="1.0" encoding="UTF-8" standalone="no"?>
<!-- Generator: Adobe Illustrator 18.0.0, SVG Export Plug-In . SVG Version: 6.00 Build 0)  -->

<svg
   version="1.1"
   id="Capa_1"
   x="0px"
   y="0px"
   viewBox="0 0 58 58"
   style="enable-background:new 0 0 58 58;"
   xml:space="preserve"
   sodipodi:docname="pdf-svgrepo-com-0-blue.svg"
   inkscape:version="1.2.1 (9c6d41e410, 2022-07-14)"
   xmlns:inkscape="http://www.inkscape.org/namespaces/inkscape"
   xmlns:sodipodi="http://sodipodi.sourceforge.net/DTD/sodipodi-0.dtd"
   xmlns="http://www.w3.org/2000/svg"
   xmlns:svg="http://www.w3.org/2000/svg"><defs
   id="defs1328" /><sodipodi:namedview
   id="namedview1326"
   pagecolor="#ffffff"
   bordercolor="#000000"
   borderopacity="0.25"
   inkscape:showpageshadow="2"
   inkscape:pageopacity="0.0"
   inkscape:pagecheckerboard="0"
   inkscape:deskcolor="#d1d1d1"
   showgrid="false"
   inkscape:zoom="14.568966"
   inkscape:cx="28.96568"
   inkscape:cy="29"
   inkscape:window-width="1920"
   inkscape:window-height="1011"
   inkscape:window-x="0"
   inkscape:window-y="33"
   inkscape:window-maximized="1"
   inkscape:current-layer="Capa_1" />

<g
   id="g1463"
   style="display:inline">
	<path
   d="m 39.57,25.259 c 0.149,-0.209 0.207,-0.343 0.23,-0.415 -0.123,-0.065 -0.286,-0.197 -1.175,-0.197 -0.505,0 -1.139,0.022 -1.811,0.108 0.815,0.627 1.014,0.944 1.547,0.944 0.233,10e-4 0.901,-0.009 1.209,-0.44 z"
   id="path1447"
   style="fill:#285193;fill-opacity:1" />
	<path
   d="m 20.536,32.634 c 0.149,-0.047 1.019,-0.444 2.64,-3.436 -2.138,1.201 -3.008,2.188 -3.07,2.744 -0.011,0.092 -0.038,0.334 0.43,0.692 z"
   id="path1449"
   style="fill:#285193;fill-opacity:1" />
	<path
   d="M 51.5,39 V 13.978 c 0,-0.766 -0.092,-1.333 -0.55,-1.792 L 39.313,0.55 C 38.964,0.201 38.48,0 37.985,0 H 8.963 C 7.777,0 6.5,0.916 6.5,2.926 V 39 Z M 37.5,3.391 c 0,-0.458 0.553,-0.687 0.877,-0.363 L 48.472,13.123 C 48.796,13.447 48.567,14 48.109,14 H 37.5 Z M 18.432,31.755 c 0.182,-1.628 2.195,-3.332 5.985,-5.068 1.504,-3.296 2.935,-7.357 3.788,-10.75 -0.998,-2.172 -1.968,-4.99 -1.261,-6.643 0.248,-0.579 0.557,-1.023 1.134,-1.215 0.228,-0.076 0.804,-0.172 1.016,-0.172 0.504,0 0.947,0.649 1.261,1.049 0.295,0.376 0.964,1.173 -0.373,6.802 1.348,2.784 3.258,5.62 5.088,7.562 1.311,-0.237 2.439,-0.358 3.358,-0.358 1.566,0 2.515,0.365 2.902,1.117 0.32,0.622 0.189,1.349 -0.39,2.16 -0.557,0.779 -1.325,1.191 -2.22,1.191 -1.216,0 -2.632,-0.768 -4.211,-2.285 -2.837,0.593 -6.151,1.651 -8.828,2.822 -0.836,1.774 -1.637,3.203 -2.383,4.251 -1.023,1.438 -1.907,2.107 -2.782,2.107 v 0 c -0.348,0 -0.682,-0.113 -0.967,-0.326 -1.043,-0.783 -1.183,-1.652 -1.117,-2.244 z"
   id="path1451"
   style="fill:#285193;fill-opacity:1" />
	<path
   d="m 21.222,45.858 c -0.142,-0.196 -0.34,-0.36 -0.595,-0.492 -0.255,-0.132 -0.593,-0.198 -1.012,-0.198 h -1.23 v 3.992 h 1.504 c 0.2,0 0.398,-0.034 0.595,-0.103 0.196,-0.068 0.376,-0.18 0.54,-0.335 0.164,-0.155 0.296,-0.371 0.396,-0.649 0.1,-0.278 0.15,-0.622 0.15,-1.032 0,-0.164 -0.023,-0.354 -0.068,-0.567 -0.046,-0.214 -0.139,-0.419 -0.28,-0.616 z"
   id="path1453"
   style="fill:#285193;fill-opacity:1" />
	<path
   d="m 29.343,18.174 c -0.716,2.474 -1.659,5.145 -2.674,7.564 2.09,-0.811 4.362,-1.519 6.496,-2.02 -1.35,-1.568 -2.699,-3.526 -3.822,-5.544 z"
   id="path1455"
   style="fill:#285193;fill-opacity:1" />
	<path
   d="m 6.5,41 v 15 c 0,1.009 1.22,2 2.463,2 H 49.037 C 50.28,58 51.5,57.009 51.5,56 V 41 Z m 16.396,7.429 c -0.173,0.415 -0.415,0.764 -0.725,1.046 -0.31,0.282 -0.684,0.501 -1.121,0.656 -0.437,0.155 -0.921,0.232 -1.449,0.232 H 18.384 V 54 H 16.743 V 43.924 h 2.898 c 0.428,0 0.852,0.068 1.271,0.205 0.419,0.137 0.795,0.342 1.128,0.615 0.333,0.273 0.602,0.604 0.807,0.991 0.205,0.387 0.308,0.822 0.308,1.306 10e-4,0.511 -0.086,0.973 -0.259,1.388 z m 10.056,2.379 c -0.178,0.588 -0.403,1.08 -0.677,1.477 -0.274,0.397 -0.581,0.709 -0.923,0.937 -0.342,0.228 -0.672,0.398 -0.991,0.513 -0.319,0.114 -0.611,0.187 -0.875,0.219 C 29.222,53.984 29.026,54 28.898,54 H 25.084 V 43.924 h 3.035 c 0.848,0 1.593,0.135 2.235,0.403 0.642,0.268 1.176,0.627 1.6,1.073 0.424,0.446 0.74,0.955 0.95,1.524 0.209,0.569 0.314,1.155 0.314,1.757 10e-4,0.83 -0.088,1.539 -0.266,2.127 z m 8.948,-5.64 h -4.635 v 3.172 h 4.211 v 1.121 H 37.265 V 54 H 35.597 V 43.924 H 41.9 Z"
   id="path1457"
   style="fill:#285193;fill-opacity:1" />
	<path
   d="M 30.765,46.282 C 30.478,45.949 30.088,45.68 29.596,45.475 29.104,45.27 28.466,45.167 27.682,45.167 h -0.957 v 7.629 h 1.627 c 1.112,0 1.914,-0.355 2.406,-1.066 0.492,-0.711 0.738,-1.741 0.738,-3.09 0,-0.419 -0.05,-0.834 -0.15,-1.244 -0.101,-0.41 -0.294,-0.781 -0.581,-1.114 z"
   id="path1459"
   style="fill:#285193;fill-opacity:1" />
	<path
   d="m 28.736,9.712 c -0.098,0.033 -1.33,1.757 0.096,3.216 0.949,-2.115 -0.053,-3.23 -0.096,-3.216 z"
   id="path1461"
   style="fill:#285193;fill-opacity:1" />
</g></svg>
