<?xml version="1.0" encoding="UTF-8" standalone="no"?>
<!-- Created with Inkscape (http://www.inkscape.org/) -->

<svg
   width="720"
   height="288"
   viewBox="0 0 190.5 76.2"
   version="1.1"
   id="svg5"
   xml:space="preserve"
   inkscape:version="1.2.1 (9c6d41e410, 2022-07-14)"
   sodipodi:docname="logo-testo-pieno-rect-ink.svg"
   inkscape:export-filename="logo-testo-pieno-rect-ink.png"
   inkscape:export-xdpi="96"
   inkscape:export-ydpi="96"
   xmlns:inkscape="http://www.inkscape.org/namespaces/inkscape"
   xmlns:sodipodi="http://sodipodi.sourceforge.net/DTD/sodipodi-0.dtd"
   xmlns="http://www.w3.org/2000/svg"
   xmlns:svg="http://www.w3.org/2000/svg"><sodipodi:namedview
     id="namedview7"
     pagecolor="#505050"
     bordercolor="#eeeeee"
     borderopacity="1"
     inkscape:showpageshadow="0"
     inkscape:pageopacity="0"
     inkscape:pagecheckerboard="0"
     inkscape:deskcolor="#505050"
     inkscape:document-units="mm"
     showgrid="false"
     inkscape:lockguides="true"
     inkscape:zoom="1.4324916"
     inkscape:cx="363.35292"
     inkscape:cy="100.87319"
     inkscape:window-width="1920"
     inkscape:window-height="991"
     inkscape:window-x="-9"
     inkscape:window-y="-9"
     inkscape:window-maximized="1"
     inkscape:current-layer="layer1" /><defs
     id="defs2" /><g
     inkscape:label="Livello 1"
     inkscape:groupmode="layer"
     id="layer1"><g
       id="g252"
       transform="matrix(0.11998208,0,0,0.11994016,4.6210627,4.8096294)"
       style="display:inline"><path
         style="fill:#285193;fill-opacity:1;stroke:#285193;stroke-width:4;stroke-linecap:butt;stroke-linejoin:miter;stroke-dasharray:none;stroke-opacity:1"
         d="m 297.5301,314.09898 0.13665,62.90636 -139.50048,69.23745 -26.83241,-53.4458 z"
         id="path240" /><path
         style="fill:#285193;fill-opacity:1;stroke:#285193;stroke-width:4;stroke-linecap:butt;stroke-linejoin:miter;stroke-dasharray:none;stroke-opacity:1"
         d="m 317.61533,254.73005 60.0431,43.87623 1.02215,142.14409 -61.45075,-0.01 z"
         id="path242" /><path
         style="fill:#285193;fill-opacity:1;stroke:#285193;stroke-width:4;stroke-linecap:butt;stroke-linejoin:miter;stroke-dasharray:none;stroke-opacity:1"
         d="M 171.82313,355.84957 42.147176,262.83947 80.082415,219.27638 227.54895,328.71305 Z"
         id="path244" /><path
         style="fill:#285193;fill-opacity:1;stroke:#285193;stroke-width:4;stroke-linecap:butt;stroke-linejoin:miter;stroke-dasharray:none;stroke-opacity:1"
         d="m 131.48103,93.071385 54.56784,0.45944 -0.24232,176.361815 -54.86258,-38.73093 z"
         id="path246" /><path
         style="fill:#285193;fill-opacity:1;stroke:#285193;stroke-width:4;stroke-linecap:butt;stroke-linejoin:miter;stroke-dasharray:none;stroke-opacity:1"
         d="m 348.47382,83.350777 26.15573,48.522583 -168.3681,85.32331 0.29695,-63.3655 z"
         id="path248" /><path
         style="fill:#9cb073;fill-opacity:1;stroke:#9cb073;stroke-width:4;stroke-linecap:butt;stroke-linejoin:miter;stroke-dasharray:none;stroke-opacity:1"
         d="M 459.80444,264.92121 426.7226,312.19336 278.10516,202.15834 334.49628,177.75861 Z"
         id="path250" /></g><g
       id="g156"><g
         aria-label="International"
         id="text150"
         style="font-weight:bold;font-size:11.4487px;font-family:Arial;-inkscape-font-specification:'Arial, Bold';fill:#285193;stroke-width:0.0820021"><path
           d="m 90.589938,58.67857 v -8.195212 h 1.654695 v 8.195212 z"
           id="path273" /><path
           d="m 99.210004,58.67857 h -1.570842 v -3.029881 q 0,-0.961512 -0.100624,-1.241021 -0.100623,-0.285099 -0.32982,-0.441625 -0.223608,-0.156525 -0.542248,-0.156525 -0.408084,0 -0.732315,0.223608 -0.324231,0.223607 -0.447215,0.592559 -0.117393,0.368953 -0.117393,1.364006 v 2.688879 h -1.570843 v -5.936777 h 1.459039 v 0.872069 q 0.777036,-1.006234 1.956565,-1.006234 0.519887,0 0.950331,0.190067 0.430445,0.184476 0.648462,0.475165 0.223607,0.29069 0.30746,0.659642 0.08944,0.368953 0.08944,1.056545 z"
           id="path275" /><path
           d="m 103.52563,52.741793 v 1.252201 h -1.07332 v 2.3926 q 0,0.726724 0.028,0.849708 0.0335,0.117394 0.13976,0.195656 0.1118,0.07826 0.26833,0.07826 0.21801,0 0.63169,-0.150935 l 0.13416,1.21866 q -0.54784,0.234788 -1.24102,0.234788 -0.42485,0 -0.76586,-0.139754 -0.341,-0.145345 -0.50311,-0.368953 -0.15653,-0.229197 -0.21802,-0.61492 -0.0503,-0.273919 -0.0503,-1.106857 v -2.588256 h -0.72114 v -1.252201 h 0.72114 v -1.179529 l 1.57643,-0.916791 v 2.09632 z"
           id="path277" /><path
           d="m 108.05368,56.789087 1.56525,0.262739 q -0.30187,0.860888 -0.95592,1.313693 -0.64846,0.447215 -1.62675,0.447215 -1.54848,0 -2.29197,-1.011823 -0.58697,-0.810577 -0.58697,-2.046008 0,-1.475809 0.77144,-2.308747 0.77145,-0.838528 1.95098,-0.838528 1.32487,0 2.09073,0.877659 0.76585,0.872069 0.73231,2.677699 h -3.93549 q 0.0168,0.698773 0.38013,1.090086 0.36337,0.385723 0.90561,0.385723 0.36896,0 0.62051,-0.201246 0.25156,-0.201247 0.38014,-0.648462 z m 0.0894,-1.587613 q -0.0168,-0.682002 -0.35218,-1.034184 -0.33541,-0.357772 -0.81617,-0.357772 -0.5143,0 -0.84971,0.374543 -0.33541,0.374542 -0.32982,1.017413 z"
           id="path279" /><path
           d="m 112.48669,58.67857 h -1.57084 v -5.936777 h 1.45904 v 0.844118 q 0.37454,-0.59815 0.67082,-0.788216 0.30187,-0.190067 0.68201,-0.190067 0.53665,0 1.03418,0.29628 l -0.48635,1.369596 q -0.3969,-0.257149 -0.7379,-0.257149 -0.32982,0 -0.55902,0.184476 -0.2292,0.178886 -0.36336,0.654052 -0.12858,0.475166 -0.12858,1.990106 z"
           id="path281" /><path
           d="m 120.83843,58.67857 h -1.57084 v -3.029881 q 0,-0.961512 -0.10062,-1.241021 -0.10063,-0.285099 -0.32983,-0.441625 -0.2236,-0.156525 -0.54224,-0.156525 -0.40809,0 -0.73232,0.223608 -0.32423,0.223607 -0.44721,0.592559 -0.1174,0.368953 -0.1174,1.364006 v 2.688879 h -1.57084 v -5.936777 h 1.45904 v 0.872069 q 0.77704,-1.006234 1.95656,-1.006234 0.51989,0 0.95034,0.190067 0.43044,0.184476 0.64846,0.475165 0.2236,0.29069 0.30746,0.659642 0.0894,0.368953 0.0894,1.056545 z"
           id="path283" /><path
           d="m 123.60557,54.553013 -1.42549,-0.257149 q 0.24037,-0.860888 0.82734,-1.274562 0.58697,-0.413674 1.74414,-0.413674 1.05096,0 1.56525,0.251559 0.5143,0.245968 0.72114,0.631691 0.21242,0.380132 0.21242,1.403136 l -0.0168,1.833581 q 0,0.782626 0.0727,1.157168 0.0783,0.368953 0.2851,0.793807 h -1.55408 q -0.0615,-0.156525 -0.15093,-0.463986 -0.0391,-0.139754 -0.0559,-0.184476 -0.4025,0.391313 -0.86089,0.58697 -0.4584,0.195656 -0.97828,0.195656 -0.91679,0 -1.44786,-0.497526 -0.52548,-0.497527 -0.52548,-1.257792 0,-0.503117 0.24038,-0.89443 0.24038,-0.396903 0.67082,-0.60374 0.43603,-0.212427 1.2522,-0.368952 1.10127,-0.206837 1.52612,-0.385723 v -0.156525 q 0,-0.452805 -0.2236,-0.642871 -0.22361,-0.195657 -0.84412,-0.195657 -0.41927,0 -0.65405,0.167706 -0.23479,0.162115 -0.38014,0.575789 z m 2.10191,1.274562 q -0.30187,0.100624 -0.95592,0.240378 -0.65405,0.139755 -0.8553,0.273919 -0.30746,0.218017 -0.30746,0.553429 0,0.329821 0.24597,0.570199 0.24597,0.240378 0.6261,0.240378 0.42486,0 0.81058,-0.27951 0.2851,-0.212427 0.37454,-0.519887 0.0615,-0.201247 0.0615,-0.765855 z"
           id="path285" /><path
           d="m 131.52127,52.741793 v 1.252201 h -1.07331 v 2.3926 q 0,0.726724 0.028,0.849708 0.0335,0.117394 0.13975,0.195656 0.11181,0.07826 0.26833,0.07826 0.21802,0 0.63169,-0.150935 l 0.13417,1.21866 q -0.54784,0.234788 -1.24102,0.234788 -0.42486,0 -0.76586,-0.139754 -0.341,-0.145345 -0.50311,-0.368953 -0.15653,-0.229197 -0.21802,-0.61492 -0.0503,-0.273919 -0.0503,-1.106857 v -2.588256 h -0.72114 v -1.252201 h 0.72114 v -1.179529 l 1.57643,-0.916791 v 2.09632 z"
           id="path287" /><path
           d="m 132.61136,51.936806 v -1.453448 h 1.57084 v 1.453448 z m 0,6.741764 v -5.936777 h 1.57084 v 5.936777 z"
           id="path289" /><path
           d="m 135.42882,55.626328 q 0,-0.782625 0.38572,-1.51494 0.38572,-0.732314 1.09009,-1.118037 0.70995,-0.385723 1.58202,-0.385723 1.34723,0 2.20812,0.877659 0.86089,0.872069 0.86089,2.208124 0,1.347234 -0.87207,2.236074 -0.86648,0.883249 -2.18576,0.883249 -0.81617,0 -1.55966,-0.368952 -0.73791,-0.368952 -1.12363,-1.078906 -0.38572,-0.715544 -0.38572,-1.738548 z m 1.60997,0.08385 q 0,0.88325 0.41926,1.352825 0.41927,0.469576 1.03419,0.469576 0.61492,0 1.02859,-0.469576 0.41927,-0.469575 0.41927,-1.364005 0,-0.872069 -0.41927,-1.341645 -0.41367,-0.469575 -1.02859,-0.469575 -0.61492,0 -1.03419,0.469575 -0.41926,0.469576 -0.41926,1.352825 z"
           id="path291" /><path
           d="m 148.18562,58.67857 h -1.57084 v -3.029881 q 0,-0.961512 -0.10063,-1.241021 -0.10062,-0.285099 -0.32982,-0.441625 -0.22361,-0.156525 -0.54225,-0.156525 -0.40808,0 -0.73231,0.223608 -0.32423,0.223607 -0.44722,0.592559 -0.11739,0.368953 -0.11739,1.364006 v 2.688879 h -1.57084 v -5.936777 h 1.45904 v 0.872069 q 0.77703,-1.006234 1.95656,-1.006234 0.51989,0 0.95033,0.190067 0.43045,0.184476 0.64846,0.475165 0.22361,0.29069 0.30746,0.659642 0.0894,0.368953 0.0894,1.056545 z"
           id="path293" /><path
           d="m 150.95276,54.553013 -1.4255,-0.257149 q 0.24038,-0.860888 0.82735,-1.274562 0.58697,-0.413674 1.74414,-0.413674 1.05095,0 1.56525,0.251559 0.5143,0.245968 0.72114,0.631691 0.21242,0.380132 0.21242,1.403136 l -0.0168,1.833581 q 0,0.782626 0.0727,1.157168 0.0783,0.368953 0.2851,0.793807 h -1.55407 q -0.0615,-0.156525 -0.15093,-0.463986 -0.0391,-0.139754 -0.0559,-0.184476 -0.4025,0.391313 -0.86089,0.58697 -0.4584,0.195656 -0.97829,0.195656 -0.91679,0 -1.44785,-0.497526 -0.52548,-0.497527 -0.52548,-1.257792 0,-0.503117 0.24038,-0.89443 0.24038,-0.396903 0.67082,-0.60374 0.43603,-0.212427 1.2522,-0.368952 1.10127,-0.206837 1.52612,-0.385723 v -0.156525 q 0,-0.452805 -0.22361,-0.642871 -0.2236,-0.195657 -0.84411,-0.195657 -0.41927,0 -0.65406,0.167706 -0.23478,0.162115 -0.38013,0.575789 z m 2.10191,1.274562 q -0.30187,0.100624 -0.95592,0.240378 -0.65405,0.139755 -0.8553,0.273919 -0.30746,0.218017 -0.30746,0.553429 0,0.329821 0.24597,0.570199 0.24597,0.240378 0.6261,0.240378 0.42485,0 0.81058,-0.27951 0.2851,-0.212427 0.37454,-0.519887 0.0615,-0.201247 0.0615,-0.765855 z"
           id="path295" /><path
           d="m 156.14604,58.67857 v -8.195212 h 1.57085 v 8.195212 z"
           id="path297" /></g><g
         aria-label="IAROS"
         id="text154"
         style="font-size:36.0583px;fill:#285193;stroke-width:3.00486"
         inkscape:label="text1530"><path
           d="M 71.254786,47.117268 V 21.306004 h 5.211552 v 25.811264 z"
           style="font-weight:bold;font-family:Arial;-inkscape-font-specification:'Arial, Bold'"
           id="path158" /><path
           d="M 104.70731,47.117268 H 99.037988 L 96.784344,41.254273 H 86.466881 l -2.130397,5.862995 h -5.52847 L 88.861378,21.306004 h 5.510863 z m -9.595592,-10.211824 -3.556532,-9.577986 -3.486105,9.577986 z"
           style="font-weight:bold;font-family:Arial;-inkscape-font-specification:'Arial, Bold'"
           id="path160" /><path
           d="M 107.48915,47.117268 V 21.306004 h 10.96891 q 4.13755,0 6.00385,0.704264 1.8839,0.686657 3.01072,2.464923 1.12683,1.778265 1.12683,4.067122 0,2.905088 -1.70784,4.8066 -1.70784,1.883905 -5.10592,2.37689 1.69024,0.985969 2.78185,2.165611 1.10921,1.179641 2.97551,4.190368 l 3.15158,5.035486 h -6.23273 l -3.76781,-5.616503 q -2.00716,-3.010727 -2.74663,-3.785417 -0.73948,-0.792297 -1.56699,-1.074003 -0.82751,-0.299312 -2.62338,-0.299312 h -1.0564 v 10.775235 z m 5.21155,-14.895177 h 3.85585 q 3.7502,0 4.68335,-0.316919 0.93315,-0.316918 1.46135,-1.091608 0.5282,-0.77469 0.5282,-1.936726 0,-1.302887 -0.70427,-2.095184 -0.68666,-0.809903 -1.95433,-1.021182 -0.63384,-0.08803 -3.80302,-0.08803 h -4.06713 z"
           style="font-weight:bold;font-family:Arial;-inkscape-font-specification:'Arial, Bold'"
           id="path162" /><path
           d="m 132.4553,34.370095 q 0,-3.943876 1.17964,-6.620078 0.88033,-1.971939 2.3945,-3.538925 1.53177,-1.566987 3.34525,-2.32407 2.4121,-1.021183 5.56368,-1.021183 5.70454,0 9.12022,3.538925 3.43328,3.538925 3.43328,9.842085 0,6.25034 -3.39807,9.789265 -3.39807,3.521318 -9.085,3.521318 -5.75736,0 -9.15543,-3.503711 -3.39807,-3.521319 -3.39807,-9.683626 z m 5.37001,-0.176066 q 0,4.384042 2.02476,6.655292 2.02476,2.253644 5.14112,2.253644 3.11637,0 5.10591,-2.236037 2.00716,-2.253644 2.00716,-6.743325 0,-4.436861 -1.95434,-6.620079 -1.93672,-2.183217 -5.15873,-2.183217 -3.222,0 -5.19394,2.218431 -1.97194,2.200823 -1.97194,6.655291 z"
           style="font-weight:bold;font-family:Arial;-inkscape-font-specification:'Arial, Bold'"
           id="path164" /><path
           d="m 160.2385,38.718923 5.0707,-0.492984 q 0.45777,2.552956 1.84869,3.750204 1.40853,1.197248 3.78542,1.197248 2.51774,0 3.78542,-1.056395 1.28528,-1.074003 1.28528,-2.500137 0,-0.915542 -0.5458,-1.54938 -0.5282,-0.651443 -1.8663,-1.126821 -0.91555,-0.316919 -4.17277,-1.126822 -4.19036,-1.038789 -5.8806,-2.552956 -2.37689,-2.130398 -2.37689,-5.193945 0,-1.971938 1.10922,-3.679777 1.12682,-1.725446 3.222,-2.623383 2.1128,-0.897936 5.08831,-0.897936 4.85942,0 7.30673,2.130398 2.46493,2.130397 2.58817,5.686929 l -5.21155,0.228886 q -0.33452,-1.989545 -1.44374,-2.852268 -1.09161,-0.88033 -3.29243,-0.88033 -2.27125,0 -3.55653,0.93315 -0.82751,0.598624 -0.82751,1.602199 0,0.915543 0.77469,1.566987 0.98597,0.82751 4.78899,1.725446 3.80303,0.897936 5.6165,1.866299 1.83109,0.950756 2.85227,2.623382 1.03879,1.65502 1.03879,4.102336 0,2.21843 -1.23246,4.155156 -1.23246,1.936725 -3.48611,2.887481 -2.25364,0.933149 -5.6165,0.933149 -4.89463,0 -7.51801,-2.253644 -2.62339,-2.27125 -3.13398,-6.602472 z"
           style="font-weight:bold;font-family:Arial;-inkscape-font-specification:'Arial, Bold'"
           id="path166" /></g></g></g></svg>
