<?xml version="1.0" encoding="UTF-8" standalone="no"?>
<!-- Created with Inkscape (http://www.inkscape.org/) -->

<svg
   width="288"
   height="288"
   viewBox="0 0 76.199998 76.2"
   version="1.1"
   id="svg16106"
   xmlns="http://www.w3.org/2000/svg"
   xmlns:svg="http://www.w3.org/2000/svg">
  <defs
     id="defs16103" />
  <g
     id="layer1">
    <g
       id="g16057"
       transform="matrix(0.11998208,0,0,0.11994016,7.9971855,6.3387335)"
       style="display:none">
      <path
         style="fill:none;stroke:#285193;stroke-width:4;stroke-linecap:butt;stroke-linejoin:miter;stroke-dasharray:none;stroke-opacity:1"
         d="m 297.5301,314.09898 0.13665,62.90636 -139.50048,69.23745 -26.83241,-53.4458 z"
         id="path5963" />
      <path
         style="fill:none;stroke:#285193;stroke-width:4;stroke-linecap:butt;stroke-linejoin:miter;stroke-dasharray:none;stroke-opacity:1"
         d="m 317.61533,254.73005 60.0431,43.87623 1.02215,142.14409 -61.45075,-0.01 z"
         id="path6864" />
      <path
         style="fill:none;stroke:#285193;stroke-width:4;stroke-linecap:butt;stroke-linejoin:miter;stroke-dasharray:none;stroke-opacity:1"
         d="M 171.82313,355.84957 42.147176,262.83947 80.082415,219.27638 227.54895,328.71305 Z"
         id="path7487" />
      <path
         style="fill:none;stroke:#285193;stroke-width:4;stroke-linecap:butt;stroke-linejoin:miter;stroke-dasharray:none;stroke-opacity:1"
         d="m 131.48103,93.071385 54.56784,0.45944 -0.24232,176.361815 -54.86258,-38.73093 z"
         id="path8317" />
      <path
         style="fill:none;stroke:#285193;stroke-width:4;stroke-linecap:butt;stroke-linejoin:miter;stroke-dasharray:none;stroke-opacity:1"
         d="m 348.47382,83.350777 26.15573,48.522583 -168.3681,85.32331 0.29695,-63.3655 z"
         id="path12528" />
      <path
         style="fill:none;stroke:#9cb073;stroke-width:4;stroke-linecap:butt;stroke-linejoin:miter;stroke-dasharray:none;stroke-opacity:1"
         d="M 459.80444,264.92121 426.7226,312.19336 278.10516,202.15834 334.49628,177.75861 Z"
         id="path12668" />
    </g>
    <g
       id="g252"
       transform="matrix(0.11998208,0,0,0.11994016,7.9971855,6.3387335)"
       style="display:inline">
      <path
         style="fill:#285193;stroke:#285193;stroke-width:4;stroke-linecap:butt;stroke-linejoin:miter;stroke-dasharray:none;stroke-opacity:1;fill-opacity:1"
         d="m 297.5301,314.09898 0.13665,62.90636 -139.50048,69.23745 -26.83241,-53.4458 z"
         id="path240" />
      <path
         style="fill:#285193;stroke:#285193;stroke-width:4;stroke-linecap:butt;stroke-linejoin:miter;stroke-dasharray:none;stroke-opacity:1;fill-opacity:1"
         d="m 317.61533,254.73005 60.0431,43.87623 1.02215,142.14409 -61.45075,-0.01 z"
         id="path242" />
      <path
         style="fill:#285193;stroke:#285193;stroke-width:4;stroke-linecap:butt;stroke-linejoin:miter;stroke-dasharray:none;stroke-opacity:1;fill-opacity:1"
         d="M 171.82313,355.84957 42.147176,262.83947 80.082415,219.27638 227.54895,328.71305 Z"
         id="path244" />
      <path
         style="fill:#285193;stroke:#285193;stroke-width:4;stroke-linecap:butt;stroke-linejoin:miter;stroke-dasharray:none;stroke-opacity:1;fill-opacity:1"
         d="m 131.48103,93.071385 54.56784,0.45944 -0.24232,176.361815 -54.86258,-38.73093 z"
         id="path246" />
      <path
         style="fill:#285193;stroke:#285193;stroke-width:4;stroke-linecap:butt;stroke-linejoin:miter;stroke-dasharray:none;stroke-opacity:1;fill-opacity:1"
         d="m 348.47382,83.350777 26.15573,48.522583 -168.3681,85.32331 0.29695,-63.3655 z"
         id="path248" />
      <path
         style="fill:#9cb073;stroke:#9cb073;stroke-width:4;stroke-linecap:butt;stroke-linejoin:miter;stroke-dasharray:none;stroke-opacity:1;fill-opacity:1"
         d="M 459.80444,264.92121 426.7226,312.19336 278.10516,202.15834 334.49628,177.75861 Z"
         id="path250" />
    </g>
  </g>
</svg>
